<svg width="47" height="44" viewBox="0 0 47 44" fill="none" xmlns="http://www.w3.org/2000/svg">
<path d="M0.932143 1.18209L0 2.07695V18.1471V34.2172L0.932143 35.1121C1.827 36.0442 1.86429 36.0442 9.54514 36.0442C16.2939 36.0442 17.1887 36.1188 17.0023 36.6035C16.8904 36.9391 16.5176 38.0949 16.2193 39.2135L15.6227 41.2269L13.8703 41.3388C12.267 41.4507 12.1179 41.5252 12.1179 42.3828V43.3149H23.49H34.8621V42.3828C34.8621 41.5252 34.713 41.4507 33.1097 41.3388L31.3573 41.2269L30.7607 39.2135C30.4624 38.0949 30.0896 36.9391 29.9777 36.6035C29.7913 36.1188 30.6861 36.0442 37.4349 36.0442C45.1157 36.0442 45.153 36.0442 46.0479 35.1121L46.98 34.2172V18.1471V2.07695L46.0479 1.18209L45.153 0.249943H23.49H1.827L0.932143 1.18209ZM44.7429 18.1471V33.8071H23.49H2.23714V18.1471V2.48709H23.49H44.7429V18.1471ZM28.1134 38.0949C28.449 39.2135 28.8219 40.3694 28.9337 40.7049C29.1201 41.1897 28.449 41.2642 23.49 41.2642C18.531 41.2642 17.8599 41.1897 18.0463 40.7049C18.1581 40.3694 18.531 39.2135 18.8666 38.0949L19.4259 36.0442H23.49H27.5541L28.1134 38.0949Z" fill="black"/>
<path d="M11.4465 6.10376C11.1109 6.40205 11.1109 24.5975 11.4092 25.3805C11.5956 25.9025 13.0125 25.9771 23.2661 25.9771C31.8045 25.9771 35.0111 25.8652 35.3466 25.5296C35.6822 25.1941 35.7941 22.5095 35.7941 15.6862C35.7941 7.48334 35.7195 6.25291 35.1975 6.06648C34.4145 5.76819 11.7448 5.76819 11.4465 6.10376ZM31.1333 10.317V11.2492L26.9201 11.3611C23.4525 11.4356 22.7068 11.3611 22.5203 10.8763C22.4085 10.5781 22.4085 10.0561 22.5203 9.75776C22.7068 9.27305 23.4525 9.19848 26.9201 9.27305L31.1333 9.38491V10.317ZM31.1333 15.9099V16.8421L23.5643 16.9539C17.0766 17.0285 15.9953 16.9539 15.8089 16.4692C15.6598 16.1709 15.6598 15.6489 15.8089 15.3506C15.9953 14.8659 17.0766 14.7913 23.5643 14.8659L31.1333 14.9778V15.9099ZM31.1333 21.5028V22.4349L23.5643 22.5468C17.0766 22.6213 15.9953 22.5468 15.8089 22.0621C15.6598 21.7638 15.6598 21.2418 15.8089 20.9435C15.9953 20.4588 17.0766 20.3842 23.5643 20.4588L31.1333 20.5706V21.5028Z" fill="black"/>
</svg>
