<svg width="80" height="88" viewBox="0 0 80 88" fill="none" xmlns="http://www.w3.org/2000/svg">
<path d="M59.971 49.5687V0H47.875V52.2538L59.971 49.5687Z" fill="#6EAB23"/>
<path d="M44.2613 52.7869V12.4316H32.1587V49.5555L44.2613 52.7869Z" fill="#6EAB23"/>
<path d="M28.8817 48.7724V24.8699H16.7856V45.5345L28.8817 48.7724Z" fill="#6EAB23"/>
<path d="M79.7134 57.9399C80.8783 58.2887 78.1866 55.8602 77.0942 55.3535C75.9622 54.8204 74.8895 54.1689 73.8892 53.4121H73.8826C71.9807 51.9708 69.5391 51.4443 67.216 51.9708L47.1107 56.5183C50.9738 57.9464 52.7376 61.5595 52.7376 61.5595C51.5859 58.8086 39.6873 55.2614 31.5991 53.1357C27.8808 52.1551 24.1164 51.3654 20.3323 50.6809C-0.65477 46.8705 0.148123 38.8416 0.148123 38.8416C0.148123 38.8416 -2.54354 52.1419 15.0214 57.8543L36.7455 63.8365C37.7919 64.1261 38.8449 64.3959 39.8913 64.6723C43.2806 65.5673 56.8573 70.1346 57.0548 86.1135C57.0548 86.1135 62.3789 52.7342 79.7134 57.9399Z" fill="#6EAB23"/>
<path d="M9.89502 59.3284C17.2198 61.4606 24.5511 63.5929 31.8758 65.7318C38.6675 67.7127 45.4263 69.5751 50.2173 75.2283C53.1788 78.7228 55.0742 83.119 55.5743 87.6731C50.4608 80.6248 42.7939 75.7811 34.607 73.0697C32.1983 72.2734 29.8094 71.4178 27.4863 70.3978C21.9779 67.9891 13.179 63.6587 9.89502 59.3284Z" fill="#DCFEB2"/>
</svg>
