<svg width="94" height="103" viewBox="0 0 94 103" fill="none" xmlns="http://www.w3.org/2000/svg">
<path d="M70.4543 58.2342V0H56.2437V61.3887L70.4543 58.2342Z" fill="white"/>
<path d="M51.9991 62.015V14.605H37.7808V58.2188L51.9991 62.015Z" fill="white"/>
<path d="M33.9309 57.2987V29.2177H19.7202V53.4948L33.9309 57.2987Z" fill="white"/>
<path d="M93.6488 68.0689C95.0173 68.4786 91.8551 65.6257 90.5716 65.0304C89.2418 64.4041 87.9815 63.6387 86.8063 62.7496H86.7986C84.5642 61.0563 81.6958 60.4378 78.9665 61.0563L55.3466 66.3989C59.885 68.0766 61.9571 72.3212 61.9571 72.3212C60.604 69.0894 46.6253 64.9221 37.1232 62.4248C32.7549 61.2728 28.3324 60.345 23.8868 59.5409C-0.769235 55.0644 0.174018 45.6318 0.174018 45.6318C0.174018 45.6318 -2.9882 61.2574 17.6474 67.9684L43.1693 74.9964C44.3986 75.3366 45.6357 75.6535 46.865 75.9783C50.8468 77.0298 66.797 82.3955 67.029 101.168C67.029 101.168 73.2838 61.9532 93.6488 68.0689Z" fill="white"/>
<path d="M11.625 69.7001C20.2302 72.2051 28.8432 74.7101 37.4485 77.2229C45.4275 79.5501 53.3678 81.7381 58.9964 88.3796C62.4756 92.485 64.7023 97.6497 65.2899 103C59.2824 94.7195 50.2752 89.029 40.6571 85.8436C37.8273 84.9081 35.0208 83.903 32.2915 82.7046C25.8202 79.8748 15.4831 74.7875 11.625 69.7001Z" fill="white"/>
</svg>
