<svg width="48" height="47" viewBox="0 0 48 47" fill="none" xmlns="http://www.w3.org/2000/svg">
<path d="M1.17711 0.928568L0.248535 1.82V12.2571V22.6943L1.17711 23.5857L2.06854 24.5143H12.5057H22.9428L23.8342 23.5857L24.7628 22.6943V12.2571V1.82L23.8342 0.928568L22.9428 -3.8147e-06H12.5057H2.06854L1.17711 0.928568ZM10.6485 6.68571C11.02 6.87143 11.5028 7.57714 11.7257 8.20857C12.2457 9.73142 11.6142 11.1057 10.0914 11.8486C9.16282 12.2943 8.90282 12.2943 8.08568 11.8486C4.63139 9.91714 7.15711 4.82857 10.6485 6.68571ZM18.0771 6.46285C18.0771 6.79714 9.45996 17.68 8.93996 17.94C8.64282 18.1257 8.04854 18.2 7.63996 18.1257C6.97139 18.0143 7.49139 17.16 11.3914 12.1457C15.4028 7.02 16.0714 6.31428 17 6.31428C17.5942 6.31428 18.0771 6.38857 18.0771 6.46285ZM17.26 12.8514C20.2685 14.9686 17.5942 19.5743 14.3628 17.8286C13.4342 17.3457 12.84 15.4143 13.2485 14.3371C13.62 13.3343 14.9942 12.2571 15.8485 12.2571C16.1828 12.2571 16.8142 12.5171 17.26 12.8514Z" fill="black"/>
<path d="M27.3621 0.371475C26.9163 0.631477 26.9163 0.854332 27.2135 1.37433C27.5849 1.96862 28.4392 2.0429 36.2392 2.15434L44.8192 2.22862V23.4V44.5715H29.2192H13.6192V36.0658C13.6192 27.1886 13.4706 26.4086 11.9849 26.9658C11.4649 27.1515 11.3906 28.2286 11.3906 36.0286C11.3906 44.3858 11.4278 44.9058 12.1706 45.8343L12.9135 46.8H29.0706H45.2278L46.1192 45.8715L47.0478 44.98V23.4V1.82005L46.1192 0.928619L45.2278 4.95911e-05H36.5735C31.7078 4.95911e-05 27.6592 0.18576 27.3621 0.371475Z" fill="black"/>
<path d="M34.6809 6.94569C34.3466 7.24283 34.3466 13.4828 34.6437 14.2628C34.8294 14.7457 35.498 14.8571 38.2837 14.8571C40.438 14.8571 41.8494 14.7085 42.1466 14.4114C42.4437 14.1143 42.5923 12.7028 42.5923 10.5485C42.5923 7.76283 42.4809 7.09426 41.998 6.90855C41.218 6.6114 34.978 6.6114 34.6809 6.94569ZM40.3637 10.7714V12.6285H38.5066H36.6494V10.7714V8.91426H38.5066H40.3637V10.7714Z" fill="black"/>
<path d="M27.1788 10.0285C27.0674 10.2514 27.0674 10.7343 27.1788 11.18C27.4016 11.8114 27.6988 11.9228 29.4816 11.8114C31.0045 11.7371 31.6731 11.5143 31.9702 11.0314C32.2674 10.5114 32.2674 10.2885 31.8216 10.0285C31.0788 9.54569 27.4759 9.54569 27.1788 10.0285Z" fill="black"/>
<path d="M34.6809 19.5743C34.3466 19.8715 34.3466 26.1115 34.6437 26.8915C34.8294 27.3744 35.498 27.4858 38.2837 27.4858C40.438 27.4858 41.8494 27.3372 42.1466 27.0401C42.4437 26.7429 42.5923 25.3315 42.5923 23.1772C42.5923 20.3915 42.4809 19.7229 41.998 19.5372C41.218 19.2401 34.978 19.2401 34.6809 19.5743ZM40.3637 23.4001V25.2572H38.5066H36.6494V23.4001V21.5429H38.5066H40.3637V23.4001Z" fill="black"/>
<path d="M27.1788 22.6571C27.0674 22.88 27.0674 23.3629 27.1788 23.8086C27.4016 24.44 27.6988 24.5514 29.4816 24.44C31.0045 24.3657 31.6731 24.1429 31.9702 23.66C32.2674 23.14 32.2674 22.9171 31.8216 22.6571C31.0788 22.1743 27.4759 22.1743 27.1788 22.6571Z" fill="black"/>
<path d="M34.6809 32.2028C34.3466 32.5 34.3466 38.74 34.6437 39.52C34.8294 40.0028 35.498 40.1143 38.2837 40.1143C40.438 40.1143 41.8494 39.9657 42.1466 39.6685C42.4437 39.3714 42.5923 37.96 42.5923 35.8057C42.5923 33.02 42.4809 32.3514 41.998 32.1657C41.218 31.8685 34.978 31.8685 34.6809 32.2028ZM40.3637 36.0285V37.8857H38.5066H36.6494V36.0285V34.1714H38.5066H40.3637V36.0285Z" fill="black"/>
<path d="M16.0343 35.2858C15.9228 35.5087 15.9228 35.9915 16.0343 36.4001C16.2571 37.143 16.5543 37.143 23.9085 37.0687C30.78 36.9573 31.5971 36.883 31.9685 36.2887C32.2657 35.7687 32.2657 35.5458 31.82 35.2858C31.0771 34.803 16.3314 34.803 16.0343 35.2858Z" fill="black"/>
</svg>
