<svg width="56" height="51" viewBox="0 0 56 51" fill="none" xmlns="http://www.w3.org/2000/svg">
<path d="M6.72536 50.904C4.62381 47.594 3.04764 44.3103 1.99687 41.0529C0.99863 37.743 0.499512 34.4593 0.499512 31.2019C0.499512 25.5802 1.9706 20.195 4.91277 15.0462C7.85495 9.84488 12.1894 5.06385 17.9161 0.703125L25.6393 5.274C26.2698 5.69431 26.7164 6.16716 26.9791 6.69254C27.2943 7.1654 27.4519 7.66452 27.4519 8.1899C27.4519 8.76783 27.3206 9.31949 27.0579 9.84488C26.7952 10.3703 26.4799 10.8168 26.1122 11.1846C25.5343 11.8151 24.8775 12.6032 24.142 13.5489C23.459 14.442 22.8022 15.5191 22.1718 16.78C21.5413 17.9884 20.9896 19.3544 20.5168 20.878C20.0965 22.3491 19.8863 23.9515 19.8863 25.6853C19.8863 27.5767 20.2016 29.5995 20.832 31.7536C21.515 33.9076 22.6183 36.2194 24.142 38.6887C24.6674 39.5293 24.9301 40.3699 24.9301 41.2105C24.9301 42.1562 24.6148 42.9969 23.9844 43.7324C23.3539 44.4679 22.487 45.0459 21.3837 45.4662L6.72536 50.904ZM34.9387 50.904C32.8371 47.594 31.261 44.3103 30.2102 41.0529C29.212 37.743 28.7128 34.4593 28.7128 31.2019C28.7128 25.5802 30.1839 20.195 33.1261 15.0462C36.0683 9.84488 40.4027 5.06385 46.1295 0.703125L53.8527 5.274C54.4831 5.69431 54.9297 6.16716 55.1924 6.69254C55.5076 7.1654 55.6653 7.66452 55.6653 8.1899C55.6653 8.76783 55.5339 9.31949 55.2712 9.84488C55.0085 10.3703 54.6933 10.8168 54.3255 11.1846C53.7476 11.8151 53.0909 12.6032 52.3553 13.5489C51.6723 14.442 51.0156 15.5191 50.3851 16.78C49.7546 17.9884 49.203 19.3544 48.7301 20.878C48.3098 22.3491 48.0997 23.9515 48.0997 25.6853C48.0997 27.5767 48.4149 29.5995 49.0454 31.7536C49.7284 33.9076 50.8317 36.2194 52.3553 38.6887C52.8807 39.5293 53.1434 40.3699 53.1434 41.2105C53.1434 42.1562 52.8282 42.9969 52.1977 43.7324C51.5672 44.4679 50.7003 45.0459 49.597 45.4662L34.9387 50.904Z" fill="#6EAB23"/>
</svg>
