<svg width="56" height="56" viewBox="0 0 56 56" fill="none" xmlns="http://www.w3.org/2000/svg">
<path d="M2.08886 1.8699V2.78371H1.17504H0.26123V3.69752V4.61134H1.17504H2.08886V5.52515V6.43896H3.00267H3.91649V5.52515V4.61134H4.8303H5.74411V3.69752V2.78371H4.8303H3.91649V1.8699V0.956082H3.00267H2.08886V1.8699ZM3.91649 3.69752V4.61134H3.00267H2.08886V3.69752V2.78371H3.00267H3.91649V3.69752Z" fill="black"/>
<path d="M24.6307 1.07436C23.0503 1.45064 21.7495 2.83749 21.4377 4.50385C21.2872 5.32091 21.298 19.6947 21.4485 20.4365C21.7172 21.7373 22.6848 22.9521 23.8889 23.5112L24.5017 23.8015H38.3164H52.1311L52.8514 23.4467C53.7545 23.0059 54.6468 22.0706 55.0016 21.1998L55.2488 20.5762V12.4594C55.2488 4.68661 55.2381 4.32109 55.0446 3.78355C54.636 2.68698 53.647 1.6764 52.5396 1.22487C52.0344 1.00986 51.7118 1.00986 38.5314 0.988358C30.9091 0.988358 24.8672 1.02061 24.6307 1.07436ZM52.0236 3.04175C52.6687 3.34277 52.9589 3.64379 53.2492 4.28884C53.4642 4.76187 53.475 4.95539 53.475 12.3627C53.475 20.7482 53.4965 20.5332 52.7977 21.2643C52.6042 21.4578 52.2601 21.7158 52.0236 21.8233C51.6151 22.0168 51.0238 22.0276 38.3379 22.0276C27.4581 22.0276 25.0285 22.0061 24.7382 21.8878C24.2329 21.6728 23.7169 21.1998 23.4481 20.6945L23.2116 20.2537V12.4594V4.66511L23.4696 4.14908C23.7384 3.59004 24.2329 3.16001 24.8457 2.93424C25.179 2.81598 27.6947 2.79448 38.3702 2.79448L51.4861 2.78373L52.0236 3.04175Z" fill="black"/>
<path d="M35.4445 4.86932L35.1434 5.12734L35.1112 8.07304C35.0897 9.68566 35.1112 11.1155 35.1434 11.2553C35.1757 11.3843 35.294 11.5885 35.4122 11.7068C35.6165 11.9111 35.7777 11.9218 37.8634 11.9218C40.0135 11.9218 40.121 11.9111 40.3146 11.696C40.5188 11.4703 40.5188 11.524 40.5726 15.5771L40.6263 19.6839L40.9274 19.9419C41.2284 20.1999 41.2606 20.1999 43.3678 20.1999C45.4749 20.1999 45.5072 20.1999 45.8082 19.9419L46.1092 19.6839L46.1415 15.5233L46.1737 11.3628L46.3887 11.6423L46.6037 11.9218H48.7969C50.001 11.9218 51.0653 11.8896 51.1621 11.8573C51.5921 11.6853 51.6459 11.3198 51.6459 8.2128V5.23485L51.3341 4.92307L51.0223 4.6113H48.9582C46.679 4.6113 46.378 4.67581 46.1845 5.25635L46.0662 5.57887H43.3785H40.6801L40.5296 5.20259C40.4328 4.97683 40.2501 4.78331 40.0888 4.71881C39.9275 4.6543 38.8955 4.6113 37.7774 4.6113C35.7885 4.6113 35.7455 4.6113 35.4445 4.86932ZM38.7449 8.26656V10.0942H37.8311H36.9173V8.26656V6.43893H37.8311H38.7449V8.26656ZM49.8182 8.26656V10.0942H48.9044H47.9906V8.26656V6.43893H48.9044H49.8182V8.26656ZM46.163 8.32031V9.23412L43.4 9.21262L40.6263 9.18037L40.5941 8.28806L40.5618 7.4065H43.3678H46.163V8.32031ZM44.3353 14.717V18.3723H43.4215H42.5077V14.717V11.0618H43.4215H44.3353V14.717Z" fill="black"/>
<path d="M29.8989 13.8679C28.2326 14.0507 26.663 15.3945 26.1684 17.0501C26.0287 17.5124 26.0287 17.5124 25.5019 17.5124H24.9751L25.0073 18.394L25.0396 19.2863L30.5547 19.3185L36.0591 19.34V18.4262V17.5124H35.5753C35.1991 17.5124 35.0701 17.4694 35.0271 17.3189C34.9948 17.2221 34.8013 16.7921 34.597 16.3621C33.7585 14.6097 31.9523 13.6421 29.8989 13.8679ZM31.6836 15.9105C32.3931 16.2653 33.0489 16.9856 33.0489 17.4049C33.0489 17.4801 32.2104 17.5124 30.5225 17.5124C27.6843 17.5124 27.7488 17.5339 28.3508 16.7383C29.0819 15.76 30.6192 15.3837 31.6836 15.9105Z" fill="black"/>
<path d="M14.02 15.6308V16.5446H13.1062H12.1924V17.4584V18.3723H13.1062H14.02V19.2861V20.1999H14.9338H15.8476V19.2861V18.3723H16.7615H17.6753V17.4584V16.5446H16.7615H15.8476V15.6308V14.717H14.9338H14.02V15.6308ZM15.8476 17.4584V18.3723H14.9338H14.02V17.4584V16.5446H14.9338H15.8476V17.4584Z" fill="black"/>
<path d="M13.9986 25.7906C13.1708 25.9304 12.4612 26.2099 11.7947 26.6399C10.6228 27.4032 9.97779 28.317 8.6877 31.0047C6.5913 35.391 5.742 39.5516 5.742 45.4215V47.7221H3.31233H0.882655L0.570884 48.0339C-0.0311585 48.6467 0.0225953 48.7435 2.43076 51.4527C4.70992 53.9898 5.38722 54.6026 6.65581 55.2047C8.24692 55.968 8.03191 55.9465 15.7402 55.9465C23.5237 55.9465 23.2657 55.968 25.0718 55.1294C27.7058 53.9146 29.5657 51.6784 30.2645 48.8725C30.458 48.1092 30.501 47.4856 30.5762 44.0669C30.63 41.5082 30.7267 39.6806 30.845 38.799C31.2535 35.7136 32.0491 32.4238 33.0597 29.6824C33.3499 28.8868 33.5864 28.0805 33.5864 27.8763C33.5864 27.1345 33.0597 26.3067 32.3501 25.9196C32.0598 25.7584 31.2105 25.7369 23.2657 25.7261C18.4494 25.7154 14.2781 25.7476 13.9986 25.7906ZM31.5976 27.6612C31.7911 27.801 31.7803 27.8548 31.3395 29.0158C30.5117 31.2412 29.6624 34.4557 29.2861 36.8101C28.9314 39.0033 28.8346 40.2181 28.7486 43.8519C28.6411 48.1952 28.5873 48.6145 27.9315 49.9368C27.2973 51.2269 26.0717 52.5492 24.9428 53.1513L24.5773 53.3555L23.7603 52.732C22.4057 51.7214 21.9756 50.9044 22.1369 49.625C22.2659 48.5177 22.2444 48.2704 21.9864 48.0124L21.7499 47.7759L14.6651 47.7436L7.56962 47.7221V45.5397C7.56962 41.0889 7.97815 38.2077 9.07473 34.918C9.87028 32.5421 11.2679 29.7039 12.1064 28.7471C12.601 28.188 13.4718 27.7365 14.2566 27.6182C14.5684 27.5752 18.5569 27.5322 23.1152 27.5215C29.9419 27.5107 31.4255 27.5322 31.5976 27.6612ZM20.2555 50.1303C20.2555 51.3236 20.8683 52.6352 21.8574 53.5598L22.3734 54.0436L22.0509 54.1081C21.8789 54.1403 18.9654 54.1726 15.5789 54.1726C9.84878 54.1726 9.37575 54.1618 8.61245 53.9683C7.06434 53.5706 6.33329 53.0545 4.68842 51.2269C4.05413 50.5173 3.47359 49.8508 3.39833 49.7433C3.25857 49.5605 3.57034 49.5498 11.7517 49.5498H20.2555V50.1303Z" fill="black"/>
<path d="M14.022 30.3596V31.2734H20.9025H27.7829V30.3596V29.4458H20.9025H14.022V30.3596Z" fill="black"/>
<path d="M11.3008 34.0361C11.2578 34.0684 11.2256 34.4877 11.2256 34.95V35.7885H18.1061H24.9865V34.8747V33.9609H18.1813C14.4293 33.9609 11.3331 33.9931 11.3008 34.0361Z" fill="black"/>
<path d="M12.1924 39.4975V40.4113H19.0729H25.9533V39.4975V38.5837H19.0729H12.1924V39.4975Z" fill="black"/>
<path d="M9.42044 44.0881L9.45269 44.9804L16.3117 45.0126L23.1599 45.0341V44.1203V43.2065H16.2794H9.38818L9.42044 44.0881Z" fill="black"/>
<path d="M45.3565 27.6395C43.6471 27.833 42.0237 29.0156 41.2174 30.6712C40.4004 32.3053 40.4756 34.4555 41.3894 35.8423C41.5507 36.1004 41.5507 36.1004 40.8734 36.4444C39.5188 37.1324 38.3147 38.6913 38.0029 40.1749C37.8309 41.0242 37.8417 55.3442 38.0244 55.5807C38.347 56 38.4115 56 46.2165 56H53.8065L54.0646 55.7312L54.3333 55.4732V47.9584C54.3333 39.7126 54.3548 39.9599 53.6775 38.6805C53.1722 37.7345 52.0542 36.6917 51.0866 36.2939L50.6996 36.1326L51.0543 35.4338C52.538 32.4881 50.9146 28.7468 47.7754 27.833C46.8938 27.575 46.3025 27.532 45.3565 27.6395ZM47.4958 29.6607C48.2807 29.9617 49.0762 30.725 49.4632 31.542C49.7105 32.0796 49.7535 32.3376 49.7643 33.0471C49.7643 34.4017 49.4417 34.95 47.5819 36.7239L46.0983 38.1323L44.6039 36.6701C42.7118 34.7995 42.4537 34.3372 42.529 32.9074C42.5613 32.2193 42.6365 31.8431 42.8193 31.4883C43.2708 30.6067 44.1846 29.8219 45.0877 29.5424C45.6467 29.3811 46.8938 29.4349 47.4958 29.6607ZM44.0664 38.6913L45.0339 39.6589L44.1739 41.379L43.3246 43.0883L44.2814 46.5071C44.8942 48.6572 45.3242 50.0011 45.464 50.1623C45.5822 50.3021 45.8295 50.4419 46.0122 50.4741C46.2918 50.5279 46.41 50.4849 46.668 50.2268C46.9583 49.9581 47.0981 49.5495 47.9259 46.6468C48.4312 44.8407 48.8504 43.2604 48.8504 43.1206C48.8504 42.9916 48.4957 42.1638 48.0549 41.293L47.2701 39.7126L48.1946 38.7128C48.8182 38.0355 49.1945 37.7237 49.3557 37.7237C49.4847 37.7237 49.8718 37.8312 50.2158 37.9602C51.0651 38.272 51.9574 39.1643 52.2692 40.0136C52.5057 40.6264 52.5057 40.7232 52.5057 47.3994V54.1724H46.109H39.7016L39.7338 47.3134L39.7661 40.4652L40.0671 39.8201C40.4434 39.0246 41.2497 38.2398 42.0022 37.9495C42.9268 37.5947 42.9913 37.6162 44.0664 38.6913ZM46.5713 42.4218L46.9906 43.2389L46.582 44.6257C46.367 45.389 46.1628 46.0341 46.1305 46.0663C46.109 46.0878 45.9047 45.475 45.679 44.6902L45.2812 43.2711L45.6897 42.4326C45.9155 41.9703 46.109 41.594 46.1305 41.594C46.1413 41.594 46.3455 41.9595 46.5713 42.4218Z" fill="black"/>
</svg>
