<svg width="47" height="47" viewBox="0 0 47 47" fill="none" xmlns="http://www.w3.org/2000/svg">
<path d="M8.76757 0.503529C5.37448 1.47298 2.31697 4.15763 0.788215 7.43885C-0.2931 9.8252 -0.255813 14.747 0.862788 17.2453C1.9441 19.7062 4.25588 22.0552 6.79137 23.3603C8.61842 24.2924 9.36416 24.4416 11.9369 24.4416C14.5843 24.4416 15.2182 24.2924 17.4927 23.1738L20.0282 21.9434L15.5165 17.3944C13.0555 14.8962 11.0048 12.6217 11.0048 12.3234C11.0048 12.0251 13.0555 9.75063 15.5165 7.25242L20.0282 2.70344L17.6045 1.51027C14.7707 0.130661 11.4522 -0.279491 8.76757 0.503529Z" fill="black" fill-opacity="0.9"/>
<path d="M22.5636 0.391628C22.1161 0.652634 22.1161 0.876354 22.4144 1.39837C22.7873 1.99495 23.7567 2.06953 33.7123 2.18139L44.5627 2.25596V22.4281V42.6002L43.4814 43.6815C41.9899 45.1357 40.4239 45.1357 38.9324 43.6815C38.0002 42.712 37.8511 42.3019 37.8511 40.4003C37.8511 39.1698 37.6647 38.0139 37.4037 37.7529C37.0681 37.4173 33.8241 37.3055 25.0991 37.3055H13.2419V32.4955C13.2419 27.4991 12.9436 26.5669 11.6013 27.0889C11.0793 27.2753 11.0047 28.0584 11.0047 32.309V37.3055H9.36406C6.67942 37.3055 6.53027 37.4546 6.53027 40.1392C6.53027 43.1968 7.42515 45.0238 9.43864 46.1797C10.8928 47 11.042 47 26.6278 47C41.6543 47 42.4374 46.9627 43.817 46.2543C44.7864 45.7695 45.5695 44.9865 46.0542 44.0171C46.7626 42.6002 46.7999 41.8544 46.7999 22.2043V1.84581L45.8677 0.950928L44.9729 0.0187607H34.0479C27.7464 0.0187607 22.8991 0.167908 22.5636 0.391628ZM35.6139 40.8477C35.6139 41.5934 35.8749 42.7493 36.1359 43.4578L36.6952 44.7628H23.8313H10.9301L9.84879 43.6815C8.9912 42.8239 8.76748 42.2273 8.76748 41.0714V39.5427H22.1907H35.6139V40.8477Z" fill="black" fill-opacity="0.9"/>
<path d="M17.7169 8.40837L13.8018 12.3235L17.7169 16.2386C22.0794 20.6384 21.893 20.6011 23.3472 17.208C24.9132 13.6658 24.503 8.85581 22.415 5.76101L21.5947 4.53055L17.7169 8.40837Z" fill="black" fill-opacity="0.9"/>
<path d="M26.4418 8.03542C25.8825 9.4896 26.4791 9.71332 30.6925 9.71332C33.8619 9.71332 34.8686 9.60146 35.2415 9.15402C35.6144 8.70658 35.6144 8.48286 35.2415 8.03542C34.8686 7.58798 33.8619 7.47612 30.6925 7.47612C27.4486 7.47612 26.591 7.58798 26.4418 8.03542Z" fill="black" fill-opacity="0.9"/>
<path d="M38.0019 8.03542C37.629 8.96758 38.5985 9.71332 40.09 9.71332C41.7679 9.71332 42.6627 8.89301 41.9543 8.03542C41.3204 7.2524 38.2629 7.28968 38.0019 8.03542Z" fill="black" fill-opacity="0.9"/>
<path d="M26.4418 15.4928C25.8825 16.9469 26.4791 17.1707 30.6925 17.1707C33.8619 17.1707 34.8686 17.0588 35.2415 16.6114C35.6144 16.1639 35.6144 15.9402 35.2415 15.4928C34.8686 15.0453 33.8619 14.9335 30.6925 14.9335C27.4486 14.9335 26.591 15.0453 26.4418 15.4928Z" fill="black" fill-opacity="0.9"/>
<path d="M38.0019 15.4928C37.629 16.4249 38.5985 17.1707 40.09 17.1707C41.7679 17.1707 42.6627 16.3503 41.9543 15.4928C41.3204 14.7097 38.2629 14.747 38.0019 15.4928Z" fill="black" fill-opacity="0.9"/>
<path d="M22.3394 22.9501C22.1903 23.2484 22.1903 23.7704 22.3394 24.0687C22.4885 24.5161 23.5699 24.628 28.6409 24.628C33.6373 24.628 34.8677 24.5161 35.2406 24.0687C35.6135 23.6212 35.6135 23.3975 35.2406 22.9501C34.8677 22.5026 33.6373 22.3908 28.6409 22.3908C23.5699 22.3908 22.4885 22.5026 22.3394 22.9501Z" fill="black" fill-opacity="0.9"/>
<path d="M38.0019 22.9501C37.629 23.8823 38.5985 24.628 40.09 24.628C41.7679 24.628 42.6627 23.8077 41.9543 22.9501C41.3204 22.1671 38.2629 22.2044 38.0019 22.9501Z" fill="black" fill-opacity="0.9"/>
<path d="M15.6293 30.4073C15.4802 30.7056 15.592 31.2277 15.853 31.5259C16.5615 32.3463 34.5709 32.3463 35.2421 31.5259C35.615 31.0785 35.615 30.8548 35.2421 30.4073C34.5337 29.5497 15.9276 29.587 15.6293 30.4073Z" fill="black" fill-opacity="0.9"/>
<path d="M38.0019 30.4074C37.629 31.3396 38.5985 32.0853 40.09 32.0853C41.7679 32.0853 42.6627 31.265 41.9543 30.4074C41.3204 29.6244 38.2629 29.6617 38.0019 30.4074Z" fill="black" fill-opacity="0.9"/>
</svg>
